<svg width="30" height="30" viewBox="0 0 30 30" fill="none" xmlns="http://www.w3.org/2000/svg">
<path d="M23.3287 23.0396L19.3621 21.4183C18.9948 21.2405 18.6451 20.751 18.6359 20.6004V19.289C18.6359 19.2044 18.6451 19.1197 18.6462 19.0752C19.3262 18.1886 21.5447 15.0634 21.5447 12.0643C21.5447 7.92066 18.9145 5.13623 14.9997 5.13623C11.085 5.13623 8.45475 7.92066 8.45475 12.0643C8.45475 15.063 10.6729 18.1882 11.3359 19.0384C11.3541 19.1202 11.3635 19.2044 11.3635 19.289L11.3636 20.5927C11.3544 20.7492 11.0049 21.2405 10.6427 21.4156L6.66693 23.0414C5.44144 23.6046 4.55943 24.7318 4.30853 26.0514L3.83545 27.9525L14.9996 30L26.1639 27.9525L25.6919 26.056C25.4394 24.7313 24.5574 23.6046 23.3287 23.0396ZM13.8148 23.4526C13.8148 23.7442 13.987 24.008 14.2502 24.13V27.3279L11.2759 23.4845L11.523 23.3826C12.4825 22.9418 13.5181 21.7527 13.5181 20.6005V19.289C13.5181 18.921 13.4572 18.558 13.3372 18.2096L13.2646 18.0167L13.1561 17.8825C13.1306 17.8506 10.6094 14.6827 10.6094 12.0644C10.6094 8.54481 12.8772 7.29113 14.9997 7.29113C17.1221 7.29113 19.3901 8.54481 19.3901 12.0644C19.3901 14.6623 16.9481 17.7515 16.8444 17.8816L16.7194 18.044L16.6626 18.2078C16.5422 18.5563 16.4812 18.9202 16.4812 19.2891V20.6005C16.4812 21.7528 17.5169 22.9419 18.4801 23.3845L18.7237 23.4841L15.7487 27.3284C15.7487 27.3284 15.7487 24.1305 15.7487 24.13C16.0118 24.0081 16.1839 23.7443 16.1839 23.4527C16.1839 23.0392 15.8479 22.703 15.4347 22.703H14.5641C14.151 22.7029 13.8148 23.0391 13.8148 23.4526Z" fill="white"/>
<path d="M13.5437 8.32239C13.443 8.32239 13.3462 8.34559 13.256 8.39106C12.9173 8.56168 12.4917 8.86825 12.3127 9.21805C12.2348 9.36999 12.2205 9.54418 12.2722 9.70754C12.3242 9.87172 12.4367 10.0055 12.5888 10.0828C12.6801 10.1297 12.7817 10.1547 12.8824 10.1547C13.1219 10.1547 13.3385 10.0224 13.4436 9.81676C13.4644 9.78401 13.6003 9.65071 13.8314 9.53428C14.1465 9.37549 14.2738 8.98977 14.1151 8.67454C14.0059 8.45704 13.7869 8.32239 13.5437 8.32239Z" fill="white"/>
<path d="M12.7963 12.0643C12.7963 11.7114 12.5093 11.4243 12.1564 11.4243C11.8037 11.4243 11.5166 11.7114 11.5166 12.0643C11.5166 12.8613 11.8079 13.843 12.3829 14.9829C12.4924 15.2004 12.7115 15.3355 12.9547 15.3355C13.0539 15.3355 13.1534 15.3114 13.2423 15.2664C13.5572 15.1076 13.6843 14.7219 13.5256 14.407C13.0486 13.4609 12.7963 12.6507 12.7963 12.0643Z" fill="white"/>
<path d="M14.9997 3.27299C15.4129 3.27299 15.749 2.93684 15.749 2.52381V0.749238C15.749 0.336152 15.4129 0 14.9997 0C14.5865 0 14.2505 0.336152 14.2505 0.749238V2.52381C14.2505 2.93684 14.5866 3.27299 14.9997 3.27299Z" fill="white"/>
<path d="M7.42771 5.97054C7.56904 6.11198 7.75719 6.1898 7.95758 6.1898C8.15797 6.1898 8.34606 6.11198 8.48727 5.97054C8.62883 5.82909 8.70688 5.64077 8.70688 5.44062C8.70688 5.24046 8.62883 5.05214 8.48727 4.91063L7.23266 3.65603C7.09121 3.51452 6.90313 3.43677 6.70297 3.43677C6.50293 3.43677 6.31484 3.51452 6.17322 3.65603C6.03166 3.79747 5.95361 3.98579 5.95361 4.18595C5.95361 4.3861 6.03166 4.57442 6.17322 4.71587L7.42771 5.97054Z" fill="white"/>
<path d="M22.5716 18.9951C22.4303 18.8537 22.2422 18.7759 22.0419 18.7759C21.8417 18.7759 21.6535 18.8537 21.5121 18.9951C21.3705 19.1366 21.2925 19.3249 21.2925 19.5251C21.2925 19.7252 21.3705 19.9131 21.5121 20.055L22.7666 21.3096C22.9078 21.4511 23.0959 21.5294 23.2964 21.5294C23.4964 21.5294 23.6846 21.4512 23.8261 21.3096C23.9677 21.1681 24.0457 20.9798 24.0457 20.7797C24.0457 20.5795 23.9677 20.3917 23.8261 20.2497L22.5716 18.9951Z" fill="white"/>
<path d="M5.79002 12.4828C5.79002 12.0697 5.45398 11.7335 5.04078 11.7335H3.26633C2.85318 11.7335 2.51709 12.0697 2.51709 12.4828C2.51709 12.8958 2.85318 13.2319 3.26633 13.2319L5.04078 13.2324C5.45398 13.2325 5.79002 12.8963 5.79002 12.4828Z" fill="white"/>
<path d="M26.7332 11.7336H24.9588C24.5456 11.7336 24.2095 12.0698 24.2095 12.4829C24.2095 12.8964 24.5456 13.2325 24.9588 13.2325H26.7332C27.1464 13.2325 27.4824 12.8963 27.4824 12.4829C27.4824 12.0698 27.1464 11.7336 26.7332 11.7336Z" fill="white"/>
<path d="M6.70297 21.5294C6.90301 21.5294 7.09121 21.4512 7.23266 21.3096L8.48785 20.0555C8.77965 19.763 8.77977 19.2876 8.48797 18.9951C8.34652 18.8537 8.15844 18.7759 7.95828 18.7759C7.75824 18.7759 7.56992 18.8537 7.42818 18.9951L6.17322 20.2497C6.03166 20.3912 5.95361 20.5795 5.95361 20.7797C5.95361 20.9798 6.03154 21.1681 6.17287 21.3096C6.31449 21.4512 6.50281 21.5294 6.70297 21.5294Z" fill="white"/>
<path d="M22.0418 6.19028C22.2416 6.19028 22.4297 6.11247 22.5716 5.97103L23.8268 4.71642C24.1187 4.42392 24.1187 3.94854 23.8269 3.65651C23.6854 3.51507 23.4973 3.43726 23.2971 3.43726C23.097 3.43726 22.9088 3.51507 22.7671 3.65651L21.5121 4.91112C21.22 5.20315 21.2199 5.67853 21.512 5.97103C21.6537 6.11247 21.8418 6.19028 22.0418 6.19028Z" fill="white"/>
</svg>
