<svg width="500" height="264" viewBox="0 0 500 264" fill="none" xmlns="http://www.w3.org/2000/svg">
<path d="M338.022 232.616L354.554 262.957H337.048L320.839 232.616H338.022ZM300.646 262.957V196.57H328.068C333.041 196.57 337.334 197.46 340.955 199.244C344.574 201.027 347.368 203.577 349.333 206.893C351.301 210.212 352.283 214.139 352.283 218.677C352.283 223.281 351.278 227.185 349.27 230.394C347.259 233.604 344.407 236.047 340.71 237.721C337.017 239.395 332.64 240.233 327.584 240.233H310.24V227.591H324.602C327.022 227.591 329.047 227.271 330.678 226.634C332.309 225.998 333.548 225.024 334.389 223.716C335.233 222.411 335.654 220.731 335.654 218.677C335.654 216.623 335.233 214.923 334.389 213.571C333.548 212.22 332.303 211.203 330.663 210.523C329.018 209.843 326.999 209.504 324.602 209.504H316.69V262.957H300.646Z" fill="#005197"/>
<path d="M377.112 262.957H361.067V196.571H377.112V262.957Z" fill="#005197"/>
<path d="M443.66 196.57V262.957H430.043L403.627 224.64H403.203V262.957H387.158V196.57H400.968L427.093 234.82H427.646V196.57H443.66Z" fill="#005197"/>
<path d="M453.709 262.957V196.57H500V209.601H469.754V223.215H497.632V236.277H469.754V249.925H500V262.957H453.709Z" fill="#005197"/>
<path d="M194.549 131.326H169.409V164.568H198.879V185.188H145.924V63.2428H195.88V83.9846H169.409V110.706H194.549V131.326Z" fill="#005197"/>
<path d="M207.263 63.2428H257.842V83.9851H230.744V111.767H256.306V132.51H230.744V185.188H207.263V63.2428Z" fill="#005197"/>
<path d="M289.554 93.2308V155.56C289.554 163.089 292.138 167.018 297.379 167.018C302.847 167.018 305.319 163.456 305.319 155.438V93.0445C305.319 85.4318 303.211 81.5353 297.314 81.5353C292.318 81.5353 289.554 85.1357 289.554 93.2308ZM329.17 95.8732V152.442C329.17 176.636 317.78 187.014 296.466 187.014C276.234 187.014 265.832 176.379 265.832 152.68V95.237C265.832 71.6912 278.771 61.4169 297.552 61.4169C316.446 61.4169 329.17 71.5242 329.17 95.8732Z" fill="#005197"/>
<path d="M365.244 113.697H368.15C375.985 113.697 379.18 111.221 379.18 99.8728V93.9769C379.18 85.7985 377.534 81.7217 368.905 81.7217H365.244V113.697ZM365.179 132.176V185.188H341.763V63.2428H372.188C392.628 63.2428 402.726 72.2254 402.726 93.5462V97.9311C402.726 115.311 395.788 120.48 390.557 122.949C398.144 126.614 401.703 132.188 401.703 149.201C401.703 160.974 401.523 178.778 402.546 185.188H379.855C378.338 179.678 378.447 163.803 378.447 148.237C378.447 134.516 376.878 132.176 367.947 132.176H365.179Z" fill="#005197"/>
<path d="M477.422 146.334C477.422 127.462 477.605 100.702 477.904 85.7404H477.274C474.725 110.134 469.336 159.534 466.006 185.188H446.112C443.422 158.524 438.159 108.225 435.609 85.425H434.86C435.163 99.7442 435.774 126.183 435.774 147.201V185.188H414.495V63.2428H448.157C451.333 86.4283 454.905 116.873 456.291 133.384H456.795C458.676 115.735 462.727 90.1125 466.472 63.2428H500V185.188H477.422V146.334Z" fill="#005197"/>
<path d="M98.4958 81.8643V81.7233L98.415 81.8643H98.4958Z" fill="#005197"/>
<path d="M102.051 209.426C97.2664 214.055 91.333 217.51 84.7231 219.263L84.8381 199.822L84.9735 87.0947H79.7904C70.9172 87.0947 63.7245 94.2878 63.7245 103.161V219.116C57.3044 217.326 51.5752 213.946 46.9143 209.431L52.0017 204.344L18.9717 195.492L27.8214 228.525L33.9565 222.389C37.7616 226.12 42.085 229.324 46.7998 231.892C59.1794 238.634 68.626 249.721 74.1001 262.711L74.4856 263.627C79.9126 250.05 89.8417 238.75 102.613 231.631C107.147 229.106 111.31 225.985 114.998 222.375L121.147 228.525L129.997 195.492L96.9673 204.344L102.051 209.426Z" fill="#005197"/>
<path d="M74.4858 33.1501C69.6868 33.1501 65.8202 29.2549 65.8202 24.4845C65.8202 19.7172 69.6868 15.819 74.4858 15.819C79.2531 15.819 83.1514 19.7172 83.1514 24.4845C83.1514 29.2549 79.2531 33.1501 74.4858 33.1501ZM133.36 97.9312V93.5467C133.36 72.2255 123.266 63.2433 102.826 63.2433H95.8818V63.2809H84.9853V46.5574C94.4944 41.9251 100.505 31.2499 97.8944 19.4694C95.9651 10.7666 88.9493 3.66454 80.2697 1.63488C64.5016 -2.05012 50.4641 9.83085 50.4641 24.9798C50.4641 34.4888 55.989 42.6621 63.9863 46.5574V63.2809H42.0895C42.0895 63.2809 17.4978 63.2232 19.398 39.8322H0C0 39.8322 0.0978524 71.4828 33.7205 80.2663C37.42 81.2337 41.24 81.585 45.0661 81.723H98.496H99.5382C108.169 81.723 109.813 85.7994 109.813 93.9787V99.8745C109.813 111.22 106.617 113.696 98.7866 113.696H92.0049V132.176H98.5823C107.513 132.176 109.082 134.516 109.082 148.237C109.082 163.804 108.972 179.678 110.489 185.188H133.178C132.156 178.777 132.337 160.974 132.337 149.202C132.337 132.19 128.782 126.614 121.193 122.949C126.421 120.479 133.36 115.311 133.36 97.9312Z" fill="#005197"/>
<path d="M145.924 196.57H165.795L182.652 237.672H183.43L200.285 196.57H220.156V262.957H204.532V222.178H203.981L188.032 262.536H178.048L162.099 221.95H161.548V262.957H145.924V196.57Z" fill="#005197"/>
<path d="M242.263 236.831H278.311V249.018H242.263V236.831ZM244.565 262.957H227.321L249.719 196.571H271.082L293.48 262.957H276.236L260.644 213.295H260.126L244.565 262.957Z" fill="#005197"/>
</svg>
