<svg xmlns="http://www.w3.org/2000/svg" version="1.1" xmlns:xlink="http://www.w3.org/1999/xlink" xmlns:svgjs="http://svgjs.dev/svgjs" width="16" height="16"><svg width="16" height="16" viewBox="0 0 16 16" fill="none" xmlns="http://www.w3.org/2000/svg">
<rect width="16" height="16" rx="8" fill="white"></rect>
<path d="M8.22799 1.50637C7.92636 1.54786 7.62809 1.72054 7.44531 1.96163C7.27936 2.17804 7.20199 2.41239 7.20199 2.69272C7.20199 3.01341 7.31412 3.28925 7.53726 3.52024C7.61687 3.6021 7.78731 3.72993 7.84002 3.74674C7.86356 3.75347 7.86356 3.75908 7.86356 4.16948V4.58436L7.26702 4.57875C6.71982 4.57427 6.66039 4.57203 6.56284 4.55072C6.2029 4.47447 5.93827 4.30628 5.79698 4.0652C5.71176 3.91943 5.65233 3.64471 5.67028 3.481L5.67812 3.41596H5.18923H4.69922L4.70707 3.49109C4.7721 4.1706 5.10401 4.74807 5.63215 5.10353C5.82838 5.23584 6.15693 5.37712 6.40137 5.43543C6.65591 5.49598 6.60881 5.49374 8.26163 5.50159C9.49395 5.5072 9.8068 5.51056 9.84268 5.52289C9.98733 5.57111 10.058 5.64624 10.1039 5.79874C10.1264 5.87386 10.1365 6.48946 10.1174 6.62962C10.0939 6.80903 10.0333 6.93238 9.93911 6.99181C9.8438 7.05236 9.78886 7.06245 9.50965 7.06805L9.25399 7.07478V7.53115V7.98865L9.50965 7.99425C9.78549 7.99986 9.84716 8.00995 9.92678 8.06265C10.0176 8.12208 10.0613 8.23197 10.0838 8.45062C10.0894 8.50893 10.095 8.81729 10.095 9.13462C10.095 9.91169 10.114 10.3613 10.1522 10.5564L10.1634 10.6147H10.7308H11.2981L11.2903 10.5531C11.2701 10.3804 11.2611 10.0294 11.2567 9.31403C11.251 8.47978 11.2443 8.34971 11.195 8.14787C11.1255 7.86867 10.9909 7.67917 10.7835 7.56816L10.7218 7.53452L10.8227 7.4706C11.0672 7.31586 11.2084 7.07815 11.2746 6.7126C11.2981 6.58477 11.3004 6.5388 11.3004 6.17998C11.3004 5.82565 11.2981 5.77407 11.2757 5.65297C11.1905 5.18314 10.9909 4.89608 10.6298 4.72789C10.3518 4.5967 10.0849 4.5653 9.36949 4.57763L8.9176 4.58548V4.17396V3.76244L8.95236 3.74338C9.22932 3.58976 9.4334 3.34532 9.52647 3.05602C9.57132 2.92034 9.58254 2.8183 9.57581 2.63441C9.56908 2.45276 9.55002 2.3552 9.48947 2.21504C9.41546 2.039 9.27417 1.85846 9.11607 1.73736C8.97478 1.6286 8.77968 1.5445 8.59802 1.51535C8.50495 1.49965 8.30985 1.49516 8.22799 1.50637ZM8.54756 2.27559C8.63503 2.30811 8.74716 2.42136 8.78304 2.51331C8.81556 2.59628 8.8178 2.72299 8.78977 2.79924C8.74491 2.91922 8.64512 3.01902 8.52514 3.06387C8.45225 3.09078 8.32218 3.08966 8.24705 3.05938C8.07773 2.99323 7.97233 2.84073 7.97233 2.66468C7.97233 2.55031 8.00373 2.4707 8.08446 2.38436C8.21005 2.24868 8.37376 2.21056 8.54756 2.27559Z" fill="black"></path>
<path d="M8.4472 5.78072C8.17921 5.85361 7.97737 6.04871 7.8843 6.32568L7.85851 6.40417L7.85515 9.33863C7.85402 10.9533 7.85066 12.2742 7.84842 12.2742C7.83384 12.2742 7.63761 12.2002 7.56921 12.1688C7.41671 12.0993 7.21712 11.967 7.09602 11.856L7.03995 11.8044L7.16218 11.681C7.23058 11.6126 7.28328 11.5543 7.27991 11.551C7.27094 11.5431 5.65065 11.1092 5.64504 11.1137C5.64168 11.1181 6.06329 12.7037 6.07787 12.7429C6.08235 12.753 6.13281 12.7104 6.23709 12.6061L6.39071 12.4536L6.43444 12.4996C6.54994 12.6184 6.80448 12.8023 7.02313 12.9246C7.61519 13.2542 8.07156 13.7678 8.3631 14.4327L8.39225 14.5L8.42926 14.4159C8.62885 13.9584 8.92712 13.5592 9.31061 13.2363C9.42386 13.141 9.66719 12.9761 9.86902 12.8584C10.0137 12.7743 10.1785 12.6532 10.3041 12.5388L10.3949 12.4559L10.5452 12.6061C10.627 12.688 10.6977 12.7519 10.7022 12.7474C10.7123 12.7362 11.1428 11.1204 11.1372 11.1148C11.1316 11.1092 9.51132 11.5431 9.50235 11.5521C9.49899 11.5543 9.55169 11.6126 9.62009 11.681L9.74231 11.8055L9.68064 11.8616C9.50011 12.0253 9.27361 12.1576 9.01458 12.2473L8.90357 12.2854L8.91142 9.02242L8.91927 5.75942L8.71968 5.76054C8.56494 5.76054 8.50326 5.76502 8.4472 5.78072Z" fill="black"></path>
</svg><style>@media (prefers-color-scheme: light) { :root { filter: none; } }
@media (prefers-color-scheme: dark) { :root { filter: none; } }
</style></svg>